<svg xmlns="http://www.w3.org/2000/svg" viewBox="0 0 200 200" width="100%" height="100%">
  <defs>
    <!-- 核心渐变 -->
    <linearGradient id="grad-core" x1="0%" y1="0%" x2="100%" y2="100%">
      <stop offset="0%" stop-color="#6366f1" />
      <stop offset="100%" stop-color="#a855f7" />
    </linearGradient>

    <!-- 卫星插件渐变 -->
    <linearGradient id="grad-sat1" x1="0%" y1="0%" x2="100%" y2="100%">
      <stop offset="0%" stop-color="#14b8a6" />
      <stop offset="100%" stop-color="#3b82f6" />
    </linearGradient>
    <linearGradient id="grad-sat2" x1="0%" y1="0%" x2="100%" y2="100%">
      <stop offset="0%" stop-color="#f59e0b" />
      <stop offset="100%" stop-color="#f43f5e" />
    </linearGradient>
    <linearGradient id="grad-sat3" x1="0%" y1="0%" x2="100%" y2="100%">
      <stop offset="0%" stop-color="#ec4899" />
      <stop offset="100%" stop-color="#8b5cf6" />
    </linearGradient>

    <filter id="glow" x="-20%" y="-20%" width="140%" height="140%">
      <feGaussianBlur stdDeviation="6" result="blur" />
      <feComposite in="SourceGraphic" in2="blur" operator="over" />
    </filter>

    <filter id="shadow" x="-20%" y="-20%" width="140%" height="140%">
      <feDropShadow dx="0" dy="6" stdDeviation="6" flood-color="#0f172a" flood-opacity="0.25" />
    </filter>
  </defs>

  <!-- 背景透明 -->
  <g transform="translate(100, 100)">
    
    <!-- 轨道/生态系统 -->
    <circle cx="0" cy="0" r="45" fill="none" stroke="#6366f1" stroke-width="1.5" stroke-dasharray="4 8" opacity="0.4" />
    <circle cx="0" cy="0" r="70" fill="none" stroke="#a855f7" stroke-width="1" stroke-dasharray="2 10" opacity="0.2" />

    <!-- 中心主控核心 (平台) -->
    <g filter="url(#glow)">
      <circle cx="0" cy="0" r="28" fill="url(#grad-core)" opacity="0.95" />
      <circle cx="0" cy="0" r="26" fill="none" stroke="#ffffff" stroke-width="1" opacity="0.3" />
      <circle cx="0" cy="0" r="8" fill="#ffffff" opacity="0.9" />
    </g>

    <!-- 卫星插件 1: 右上角 -->
    <g filter="url(#shadow)" transform="translate(40,-35)">
      <rect x="-14" y="-14" width="28" height="28" rx="8" fill="url(#grad-sat1)" transform="rotate(15)" />
      <circle cx="0" cy="0" r="4" fill="#ffffff" opacity="0.8" />
    </g>

    <!-- 卫星插件 2: 底部 -->
    <g filter="url(#shadow)" transform="translate(-10,48)">
      <rect x="-18" y="-10" width="36" height="20" rx="10" fill="url(#grad-sat2)" transform="rotate(-10)" />
      <line x1="-6" y1="0" x2="6" y2="0" stroke="#ffffff" stroke-width="3" stroke-linecap="round" opacity="0.8" />
    </g>

    <!-- 卫星插件 3: 左上角 -->
    <g filter="url(#shadow)" transform="translate(-42,-18)">
      <circle cx="0" cy="0" r="14" fill="url(#grad-sat3)" />
      <polygon points="0,-4 3.5,2.5 -3.5,2.5" fill="#ffffff" opacity="0.8" />
    </g>

  </g>
</svg>
